<?xml version="1.0" encoding="UTF-8" standalone="no"?>
<!-- Created with Inkscape (http://www.inkscape.org/) -->

<svg
   width="16.933332mm"
   height="16.933332mm"
   viewBox="0 0 16.933332 16.933332"
   version="1.1"
   id="svg1"
   inkscape:version="1.4.3 (0d15f75, 2025-12-25)"
   sodipodi:docname="jails.svg"
   xmlns:inkscape="http://www.inkscape.org/namespaces/inkscape"
   xmlns:sodipodi="http://sodipodi.sourceforge.net/DTD/sodipodi-0.dtd"
   xmlns="http://www.w3.org/2000/svg"
   xmlns:svg="http://www.w3.org/2000/svg">
  <sodipodi:namedview
     id="namedview1"
     pagecolor="#ffffff"
     bordercolor="#000000"
     borderopacity="0.25"
     inkscape:showpageshadow="2"
     inkscape:pageopacity="0.0"
     inkscape:pagecheckerboard="0"
     inkscape:deskcolor="#d1d1d1"
     inkscape:document-units="mm"
     inkscape:zoom="8.1336326"
     inkscape:cx="27.478497"
     inkscape:cy="29.199745"
     inkscape:window-width="1920"
     inkscape:window-height="1009"
     inkscape:window-x="1912"
     inkscape:window-y="-8"
     inkscape:window-maximized="1"
     inkscape:current-layer="layer1" />
  <defs
     id="defs1" />
  <g
     inkscape:label="Camada 1"
     inkscape:groupmode="layer"
     id="layer1">
    <rect
       style="fill:#ff0000;stroke-width:0.170204"
       id="rect1"
       width="2.9901881"
       height="6.5606527"
       x="6.0408731"
       y="1.4436381"
       transform="matrix(1,0,-0.12891523,0.99165562,0,0)" />
    <rect
       style="fill:#00ff00;stroke-width:0.170204"
       id="rect2"
       width="2.9901881"
       height="6.5606527"
       x="9.8313017"
       y="2.5108769"
       transform="matrix(1,0,-0.12891523,0.99165562,0,0)" />
    <rect
       style="fill:#0000ff;stroke-width:0.170204"
       id="rect3"
       width="2.9901881"
       height="6.5606527"
       x="6.0408731"
       y="8.0042906"
       transform="matrix(1,0,-0.12891523,0.99165562,0,0)" />
    <rect
       style="fill:#ffff00;stroke-width:0.170204"
       id="rect4"
       width="2.9901881"
       height="6.5606527"
       x="9.8313017"
       y="9.0715284"
       transform="matrix(1,0,-0.12891523,0.99165562,0,0)" />
    <rect
       style="fill:#ff0000;stroke-width:0.170204"
       id="rect5"
       width="2.9901881"
       height="6.5606527"
       x="2.4568198"
       y="1.9772575"
       transform="matrix(1,0,-0.12891523,0.99165562,0,0)" />
    <rect
       style="fill:#0000ff;stroke-width:0.170204"
       id="rect6"
       width="2.9901881"
       height="6.5606527"
       x="2.4568198"
       y="8.5379095"
       transform="matrix(1,0,-0.12891523,0.99165562,0,0)" />
    <rect
       style="fill:#ffff00;stroke-width:0.170204"
       id="rect7"
       width="2.9901881"
       height="6.5606527"
       x="13.415355"
       y="8.5379095"
       transform="matrix(1,0,-0.12891523,0.99165562,0,0)" />
    <rect
       style="fill:#00ff00;stroke-width:0.170204"
       id="rect8"
       width="2.9901881"
       height="6.5606527"
       x="13.415355"
       y="1.9772575"
       transform="matrix(1,0,-0.12891523,0.99165562,0,0)" />
  </g>
</svg>
